User Type,Username,Date,Text
,lala91,2013-06-16T19:48Z,"General
Complete name                    : Sam.and.Cat.S01E02.480p.Favorite.Show.HDTV.x264-HarryLala.mp4
Format                           : MPEG-4
Format profile                   : Base Media / Version 2
Codec ID                         : mp42
File size                        : 148 MiB
Duration                         : 23mn 11s
Overall bit rate                 : 889 Kbps
Encoded date                     : UTC 2013-06-16 04:52:50
Tagged date                      : UTC 2013-06-16 04:52:50

Video
ID                               : 201
Format                           : AVC
Format/Info                      : Advanced Video Codec
Format profile                   : High@L3.0
Format settings, CABAC           : Yes
Format settings, ReFrames        : 4 frames
Format settings, GOP             : M=4, N=10
Codec ID                         : avc1
Codec ID/Info                    : Advanced Video Coding
Duration                         : 23mn 11s
Bit rate mode                    : Variable
Bit rate                         : 757 Kbps
Maximum bit rate                 : 2 364 Kbps
Width                            : 640 pixels
Height                           : 360 pixels
Display aspect ratio             : 16:9
Frame rate mode                  : Constant
Frame rate                       : 23.976 fps
Color space                      : YUV
Chroma subsampling               : 4:2:0
Bit depth                        : 8 bits
Scan type                        : Progressive
Bits/(Pixel*Frame)               : 0.137
Stream size                      : 126 MiB (85%)
Writing library                  : x264 core 128 r2216 198a7ea
Encoding settings                : cabac=1 / ref=3 / deblock=1:0:0 / analyse=0x3:0x113 / me=hex / subme=7 / psy=1 / psy_rd=1.00:0.00 / mixed_ref=1 / me_range=16 / chroma_me=1 / trellis=1 / 8x8dct=1 / cqm=0 / deadzone=21,11 / fast_pskip=1 / chroma_qp_offset=-2 / threads=12 / lookahead_threads=2 / sliced_threads=0 / nr=0 / decimate=1 / interlaced=0 / bluray_compat=0 / constrained_intra=0 / bframes=3 / b_pyramid=2 / b_adapt=1 / b_bias=0 / direct=1 / weightb=1 / open_gop=0 / weightp=2 / keyint=250 / keyint_min=23 / scenecut=40 / intra_refresh=0 / rc_lookahead=40 / rc=crf / mbtree=1 / crf=22.0 / qcomp=0.60 / qpmin=0 / qpmax=69 / qpstep=4 / ip_ratio=1.40 / aq=1:1.00
Tagged date                      : UTC 2013-06-16 04:52:51

Audio
ID                               : 101
Format                           : AAC
Format/Info                      : Advanced Audio Codec
Format profile                   : LC
Codec ID                         : 40
Duration                         : 23mn 11s
Bit rate mode                    : Variable
Bit rate                         : 128 Kbps
Maximum bit rate                 : 135 Kbps
Channel(s)                       : 2 channels
Channel positions                : Front: L R
Sampling rate                    : 44.1 KHz
Compression mode                 : Lossy
Stream size                      : 21.2 MiB (14%)
Encoded date                     : UTC 2013-06-16 04:52:51
Tagged date                      : UTC 2013-06-16 04:52:51"
